<?xml version="1.0"?>
<svg width="640" height="480" xmlns="http://www.w3.org/2000/svg" xmlns:svg="http://www.w3.org/2000/svg" xmlns:xlink="http://www.w3.org/1999/xlink">
 <!-- Created with SVG-edit - https://github.com/SVG-Edit/svgedit-->

 <g class="layer">
  <title>Layer 1</title>
  <image height="0" id="svg_6" transform="matrix(1 0 0 1 0 0)" width="0" x="27" xlink:href="./images/logo.svg" y="205"/>
  <image height="0" id="svg_10" transform="matrix(1 0 0 1 0 0)" width="0" x="241" xlink:href="https://cdn.britannica.com/99/143599-050-C3289491/Watermelon.jpg" y="166"/>
  <text fill="#000000" fill-opacity="0" font-family="Serif" font-size="24" id="svg_12" stroke="#000000" stroke-dasharray="null" stroke-linecap="null" stroke-linejoin="null" stroke-opacity="null" stroke-width="0" text-anchor="middle" x="132" xml:space="preserve" y="79">Free</text>
  <image height="0" id="svg_15" transform="matrix(1 0 0 1 0 0)" width="0" x="148" xlink:href="https://www.vacationsbyrail.com/media/39419706/northern-lights-flying-over-the-glacier-lagoon-in-iceland.jpg" y="187"/>
  <text fill="#000000" font-family="Serif" font-size="24" id="svg_16" stroke="#000000" stroke-dasharray="null" stroke-linecap="null" stroke-linejoin="null" stroke-opacity="null" stroke-width="0" text-anchor="middle" transform="matrix(1 0 0 1 0 0) rotate(1.35988 350 300.25)" x="350" xml:space="preserve" y="308"/>
  <ellipse cx="320" cy="238" fill="#0000ff" id="svg_17" rx="253" ry="211" stroke="#000000" stroke-dasharray="null" stroke-linecap="null" stroke-linejoin="null" stroke-opacity="null" transform="matrix(1 0 0 1 0 0)"/>
  <polygon cx="185" cy="138" fill="#ff00ff" id="svg_18" orient="point" point="5" points="323,72.53959655761719 353.8509521484375,187.53729248046875 472.7537536621094,181.34207153320312 372.91790771484375,246.2193145751953 415.5528869628906,357.3881530761719 323,282.48681640625 230.4470977783203,357.3881530761719 273.08209228515625,246.2193145751953 173.2462615966797,181.34207153320312 292.1490478515625,187.53729248046875 323,72.53959655761719 353.8509521484375,187.53729248046875 " r="157.46" r2="52.49" radialshift="0" shape="star" starRadiusMultiplier="3" stroke="#000000" stroke-width="NaN" transform="matrix(1 0 0 1 0 0)"/>
  <text fill="#ffaaff" font-family="Serif" font-size="24" id="svg_19" stroke="#000000" stroke-dasharray="null" stroke-linecap="null" stroke-linejoin="null" stroke-opacity="null" stroke-width="0" text-anchor="middle" transform="matrix(1 0 0 1 0 0) matrix(1.53774 0 0 1.72727 -124.755 -277.455)" x="289.55" xml:space="preserve" y="393.16">Girl Power</text>
  <polygon cx="131" cy="229" fill="#aaffff" id="svg_20" orient="point" point="5" points="131,215.25631458127447 133.692778533758,225.29370831030263 144.0710215753896,224.75296764027064 135.35700719179653,230.41567745324312 139.07833560127398,240.11887506909213 131,233.58122847290852 122.92166439872602,240.11887506909213 126.64299280820346,230.41567745324312 117.92897842461039,224.75296764027064 128.307221466242,225.29370831030263 131,215.25631458127447 133.692778533758,225.29370831030263 " r="13.74" r2="4.58" radialshift="0" shape="star" starRadiusMultiplier="3" stroke="#000000" stroke-width="NaN" transform="matrix(1 0 0 1 0 0)"/>
  <polygon cx="461" cy="284" fill="#aaffff" id="svg_21" orient="point" point="5" points="463,214.79766845703125 465.97857666015625,225.90036010742188 477.4582824707031,225.30221557617188 467.8194274902344,231.56591796875 471.9356994628906,242.2989501953125 463,235.06744384765625 454.0643005371094,242.2989501953125 458.1805725097656,231.56591796875 448.5417175292969,225.30221557617188 460.02142333984375,225.90036010742188 463,214.79766845703125 465.97857666015625,225.90036010742188 " r="15.2" r2="5.07" radialshift="0" shape="star" starRadiusMultiplier="3" stroke="#000000" stroke-width="NaN"/>
  <polygon cx="152" cy="334" fill="#aaffff" id="svg_22" orient="point" point="5" points="154,293.2054748535156 156.31088256835938,303.0304870605469 165.21726989746094,302.5011901855469 157.7390899658203,308.0440979003906 160.93264770507812,317.5419921875 154,311.14263916015625 147.06735229492188,317.5419921875 150.2609100341797,308.0440979003906 142.78273010253906,302.5011901855469 151.68911743164062,303.0304870605469 154,293.2054748535156 156.31088256835938,303.0304870605469 " r="11.79" r2="3.93" radialshift="0" shape="star" starRadiusMultiplier="3" stroke="#000000" stroke-width="NaN" transform="matrix(1 0 0 1 0 0)"/>
  <polygon cx="399" cy="94" fill="#aaffff" id="svg_23" orient="point" point="5" points="203.00000012631062,243.13033961408655 206.14963264856488,254.22136080747805 218.28872680664062,253.62385433052987 208.0962423530873,259.8809805774654 212.4489390241215,270.6027526855469 203.00000012631062,263.37883183129816 193.55106122849975,270.6027526855469 197.90375789953396,259.8809805774654 187.71127344598062,253.62385433052987 199.85036760405637,254.22136080747805 203.00000012631062,243.13033961408655 206.14963264856488,254.22136080747805 " r="11.87" r2="3.96" radialshift="0" shape="star" starRadiusMultiplier="3" stroke="#000000" stroke-width="NaN" transform="matrix(1 0 0 1 0 0)"/>
  <polygon cx="428" cy="280" fill="#aaffff" id="svg_24" orient="point" point="5" points="428,270 429.95928417430827,277.30327668541685 437.51056516295154,276.90983005625054 431.1701883876505,281.03005664791647 433.87785252292474,288.09016994374946 428,283.3333333333333 422.12214747707526,288.09016994374946 424.8298116123495,281.03005664791647 418.48943483704846,276.90983005625054 426.04071582569173,277.30327668541685 428,270 429.95928417430827,277.30327668541685 " r="10" r2="3.33" radialshift="0" shape="star" starRadiusMultiplier="3" stroke="#000000" stroke-width="NaN" transform="rotate(6.3297 428 279.045)"/>
  <polygon cx="506" cy="317" fill="#aaffff" id="svg_25" orient="point" point="5" points="499.9999998404935,260.1292344544947 502.86700225596064,270.49213886143315 513.9167856957254,269.9339100241361 504.63890785307444,275.780221763782 508.6010070868949,285.79813326105267 499.9999998404935,279.04844695366245 491.39896168534756,285.79813326105267 495.36109182791256,275.780221763782 486.08324489400616,269.9339100241361 497.13299742502636,270.49213886143315 499.9999998404935,260.1292344544947 502.86700225596064,270.49213886143315 " r="10.85" r2="3.62" radialshift="0" shape="star" starRadiusMultiplier="3" stroke="#000000" stroke-width="NaN" transform="matrix(1 0 0 1 0 0) rotate(-15.2712 500 272.964)"/>
  <polygon cx="204" cy="111" fill="#aaffff" id="svg_26" orient="point" point="5" points="204,99.20546265803058 206.31088503574082,107.81933961651895 215.21727159576653,107.35528752054152 207.7390905319222,112.2149041598195 210.9326551072225,120.54198115044318 204,114.93151244732314 197.0673448927775,120.54198115044318 200.2609094680778,112.2149041598195 192.78272840423347,107.35528752054152 201.68911496425918,107.81933961651895 204,99.20546265803058 206.31088503574082,107.81933961651893 " r="11.79" r2="3.93" radialshift="0" shape="star" starRadiusMultiplier="3" stroke="#000000" stroke-width="NaN"/>
  <polygon cx="386" cy="128" fill="#aaffff" id="svg_27" orient="point" point="5" points="386,117.229670385731 388.1102136365321,125.09554010234554 396.2431921622972,124.6717851141711 389.4143973874324,129.10940496194297 392.3306409095962,136.7133796929634 386,131.590109871423 379.6693590904038,136.7133796929634 382.5856026125676,129.10940496194297 375.7568078377028,124.6717851141711 383.8897863634679,125.09554010234554 386,117.229670385731 388.1102136365321,125.09554010234554 " r="10.77" r2="3.59" radialshift="0" shape="star" starRadiusMultiplier="3" stroke="#000000" stroke-width="NaN"/>
  <polygon cx="256" cy="157" fill="#aaffff" id="svg_28" orient="point" point="5" points="256,147.3851965987627 257.8838132143129,154.40715355027498 265.1442214276435,154.02886235144362 259.04807380921454,157.99037921618546 261.6514396429388,164.77853934917502 256,160.2049344670791 250.34856035706122,164.77853934917502 252.95192619078549,157.99037921618546 246.85577857235646,154.02886235144362 254.11618678568706,154.40715355027498 256,147.3851965987627 257.8838132143129,154.40715355027498 " r="9.61" r2="3.2" radialshift="0" shape="star" starRadiusMultiplier="3" stroke="#000000" stroke-width="NaN"/>
  <polygon cx="449" cy="113" fill="#aaffff" id="svg_29" orient="point" point="5" points="449,103.08928750178767 450.9417902153866,110.32735505419402 458.4256477025527,109.93742141168819 452.14188256751754,114.02085952943727 454.8253706461599,121.01793483741797 449,116.30357083273745 443.1746293538401,121.01793483741797 445.85811743248246,114.02085952943727 439.5743522974473,109.93742141168819 447.0582097846134,110.32735505419402 449,103.08928750178767 450.9417902153866,110.32735505419402 " r="9.91" r2="3.3" radialshift="0" shape="star" starRadiusMultiplier="3" stroke="#000000" stroke-width="NaN"/>
  <polygon cx="459" cy="157" fill="#aaffff" id="svg_30" orient="point" point="5" points="462.00000011062366,149.5464324951172 464.0783900358292,157.41226470952824 472.0887453384348,156.9885106048696 465.3629151865607,161.42612162105252 468.2352133190434,169.03005929073515 462.00000011062366,163.9068216738724 455.7647869022039,169.03005929073515 458.6370850346866,161.42612162105252 451.9112548828125,156.9885106048696 459.9216101854181,157.41226470952824 462.00000011062366,149.5464324951172 464.0783900358292,157.41226470952824 " r="7.45" r2="2.48" radialshift="0" shape="star" starRadiusMultiplier="3" stroke="#000000" stroke-width="NaN"/>
  <polygon cx="264" cy="66" fill="#aaffff" id="svg_31" orient="point" point="5" points="264,56.52488639763207 265.85644401308923,63.44482402401704 273.01136853416887,63.072028873235084 267.00378951138964,66.97599037558831 269.5693320392677,73.66552792794889 264,69.1583712007893 258.4306679607323,73.66552792794889 260.99621048861036,66.97599037558831 254.98863146583113,63.072028873235084 262.14355598691077,63.44482402401704 264,56.52488639763207 265.85644401308923,63.44482402401704 " r="9.48" r2="3.16" radialshift="0" shape="star" starRadiusMultiplier="3" stroke="#000000" stroke-width="NaN"/>
  <polygon cx="348" cy="56" fill="#aaffff" id="svg_32" orient="point" point="5" points="348,47.972270280805134 349.57286037944425,53.83514341030751 355.6348246604965,53.51929509051996 350.54494155349886,56.826901636493346 352.71858113833275,62.49456976907747 348,58.67590990639829 343.28141886166725,62.49456976907747 345.45505844650114,56.826901636493346 340.3651753395035,53.51929509051996 346.42713962055575,53.83514341030751 348,47.972270280805134 349.57286037944425,53.83514341030751 " r="8.03" r2="2.68" radialshift="0" shape="star" starRadiusMultiplier="3" stroke="#000000" stroke-width="NaN"/>
  <polygon cx="140" cy="154" fill="#aaffff" id="svg_33" orient="point" point="5" points="140,146.788897449072 141.4128599107347,152.05536516270624 146.85816607073266,151.7716467635827 142.28605535691088,154.7427844121391 144.2385797322041,159.83390451188126 140,156.40370085030932 135.7614202677959,159.83390451188126 137.71394464308912,154.7427844121391 133.14183392926734,151.7716467635827 138.5871400892653,152.05536516270624 140,146.788897449072 141.4128599107347,152.05536516270624 " r="7.21" r2="2.4" radialshift="0" shape="star" starRadiusMultiplier="3" stroke="#000000" stroke-width="NaN" transform="matrix(1 0 0 1 0 0)"/>
  <path d="m322.39,328.07c5.76,-16.54 28.35,0 0,21.26c-28.35,-21.26 -5.76,-37.8 0,-21.26z" fill="none" fill-opacity="null" id="svg_38" stroke="#e5e5e5" stroke-dasharray="null" stroke-linecap="null" stroke-linejoin="null"/>
 </g>
</svg>